# xmcd
#
# Track frame offsets:
#	150
#	15618
#	29095
#	41699
#	55227
#	71417
#	86666
#	103027
#	118282
#	128350
#	141283
#	152818
#	164250
#	179212
#	194835
#	212607
#
# Disc length: 3050 seconds
#
# Revision: 6
# Processed by: cddbd v1.5.2PL0 Copyright (c) Steve Scherf et al.
# Submitted via: EasyCDDAExtractor 15.3.0.1
#
DISCID=ef0be810
DTITLE=Rocio Durcal - Su Historia Y Exitos Musicales Vol. 1 - CD 2
DYEAR=2004
DGENRE=Latin
TTITLE0=La Muerte Del Palomo
TTITLE1=Lagrimas Y Lluvia
TTITLE2=Ya No Insistas Corazon
TTITLE3=Cuando Dos Almas
TTITLE4=Me Desperto La Realidad
TTITLE5=Luz De Luna
TTITLE6=Dejame
TTITLE7=¡Oh Gran Dios!
TTITLE8=Te Llegara Mi Olvido
TTITLE9=Un Sueño De Tantos
TTITLE10=Juro Que Nunca Volvere
TTITLE11=Ruega Por Nosotros
TTITLE12=Cuando Todo Se Acabe
TTITLE13=El Mas Querido
TTITLE14=Una Oracion
TTITLE15=Tu Que Fuiste
EXTD=YEAR: 2004
EXTT0=
EXTT1=
EXTT2=
EXTT3=
EXTT4=
EXTT5=
EXTT6=
EXTT7=
EXTT8=
EXTT9=
EXTT10=
EXTT11=
EXTT12=
EXTT13=
EXTT14=
EXTT15=
PLAYORDER=
